<?xml version="1.0" encoding="UTF-8" standalone="no"?>
<!DOCTYPE svg PUBLIC "-//W3C//DTD SVG 1.1//EN"
 "http://www.w3.org/Graphics/SVG/1.1/DTD/svg11.dtd">
<!-- Generated by graphviz version 2.44.1 (0)
 -->
<!-- Title: DockerDeps Pages: 1 -->
<svg width="1402pt" height="797pt"
 viewBox="0.00 0.00 1402.00 796.50" xmlns="http://www.w3.org/2000/svg" xmlns:xlink="http://www.w3.org/1999/xlink">
<g id="graph0" class="graph" transform="scale(1 1) rotate(0) translate(4 792.5)">
<title>DockerDeps</title>
<polygon fill="white" stroke="transparent" points="-4,4 -4,-792.5 1398,-792.5 1398,4 -4,4"/>
<g id="clust1" class="cluster">
<title>clusterDockerfile</title>
<polygon fill="none" stroke="royalblue" points="411,-116 411,-709.5 969,-709.5 969,-116 411,-116"/>
<text text-anchor="middle" x="690" y="-694.3" font-family="Times,serif" font-size="14.00">docker/&lt;distro&gt;/Dockerfile</text>
</g>
<g id="clust2" class="cluster">
<title>clusterCache</title>
<polygon fill="none" stroke="royalblue" points="8,-8 8,-83 1192,-83 1192,-8 8,-8"/>
<text text-anchor="middle" x="600" y="-67.8" font-family="Times,serif" font-size="14.00">cache/&lt;distro&gt;/</text>
</g>
<!-- DISTRO_IMG -->
<g id="node1" class="node">
<title>DISTRO_IMG</title>
<path fill="royalblue" stroke="black" d="M555,-784.23C555,-786.03 526.31,-787.5 491,-787.5 455.69,-787.5 427,-786.03 427,-784.23 427,-784.23 427,-754.77 427,-754.77 427,-752.97 455.69,-751.5 491,-751.5 526.31,-751.5 555,-752.97 555,-754.77 555,-754.77 555,-784.23 555,-784.23"/>
<path fill="none" stroke="black" d="M555,-784.23C555,-782.42 526.31,-780.95 491,-780.95 455.69,-780.95 427,-782.42 427,-784.23"/>
<text text-anchor="middle" x="491" y="-765.8" font-family="Times,serif" font-size="14.00">&lt;distro&gt;:latest</text>
</g>
<!-- ENV_IMG -->
<g id="node4" class="node">
<title>ENV_IMG</title>
<path fill="royalblue" stroke="black" d="M680.5,-673.85C680.5,-676.49 629.18,-678.63 566,-678.63 502.82,-678.63 451.5,-676.49 451.5,-673.85 451.5,-673.85 451.5,-630.9 451.5,-630.9 451.5,-628.26 502.82,-626.12 566,-626.12 629.18,-626.12 680.5,-628.26 680.5,-630.9 680.5,-630.9 680.5,-673.85 680.5,-673.85"/>
<path fill="none" stroke="black" d="M680.5,-673.85C680.5,-671.22 629.18,-669.08 566,-669.08 502.82,-669.08 451.5,-671.22 451.5,-673.85"/>
<text text-anchor="middle" x="566" y="-656.17" font-family="Times,serif" font-size="14.00">cmake&#45;external:&lt;distro&gt;_env</text>
<text text-anchor="middle" x="566" y="-641.17" font-family="Times,serif" font-size="14.00">env</text>
</g>
<!-- DISTRO_IMG&#45;&gt;ENV_IMG -->
<g id="edge8" class="edge">
<title>DISTRO_IMG&#45;&gt;ENV_IMG</title>
<path fill="none" stroke="black" d="M502.39,-751.01C513.36,-734.17 530.25,-708.24 543.87,-687.34"/>
<polygon fill="black" stroke="black" points="546.96,-689.02 549.48,-678.73 541.09,-685.19 546.96,-689.02"/>
</g>
<!-- PKG -->
<g id="node2" class="node">
<title>PKG</title>
<polygon fill="royalblue" stroke="black" points="708.5,-788.5 577.5,-788.5 573.5,-784.5 573.5,-750.5 704.5,-750.5 708.5,-754.5 708.5,-788.5"/>
<polyline fill="none" stroke="black" points="704.5,-784.5 573.5,-784.5 "/>
<polyline fill="none" stroke="black" points="704.5,-784.5 704.5,-750.5 "/>
<polyline fill="none" stroke="black" points="704.5,-784.5 708.5,-788.5 "/>
<text text-anchor="middle" x="641" y="-773.3" font-family="Times,serif" font-size="14.00">packages</text>
<text text-anchor="middle" x="641" y="-758.3" font-family="Times,serif" font-size="14.00">e.g. cmake, g++</text>
</g>
<!-- PKG&#45;&gt;ENV_IMG -->
<g id="edge9" class="edge">
<title>PKG&#45;&gt;ENV_IMG</title>
<path fill="none" stroke="black" stroke-dasharray="5,2" d="M629.12,-750.26C618.13,-733.39 601.52,-707.9 588.1,-687.3"/>
<polygon fill="black" stroke="black" points="590.96,-685.28 582.57,-678.81 585.1,-689.1 590.96,-685.28"/>
<text text-anchor="middle" x="638.5" y="-721.3" font-family="Times,serif" font-size="14.00">install</text>
</g>
<!-- SRC -->
<g id="node3" class="node">
<title>SRC</title>
<polygon fill="royalblue" stroke="black" points="1050.5,-670.38 1047.5,-674.38 1026.5,-674.38 1023.5,-670.38 977.5,-670.38 977.5,-634.38 1050.5,-634.38 1050.5,-670.38"/>
<text text-anchor="middle" x="1014" y="-648.67" font-family="Times,serif" font-size="14.00">git repo</text>
</g>
<!-- DEVEL_IMG -->
<g id="node5" class="node">
<title>DEVEL_IMG</title>
<path fill="royalblue" stroke="black" d="M920,-570.6C920,-573.24 865.77,-575.38 799,-575.38 732.23,-575.38 678,-573.24 678,-570.6 678,-570.6 678,-527.65 678,-527.65 678,-525.01 732.23,-522.87 799,-522.87 865.77,-522.87 920,-525.01 920,-527.65 920,-527.65 920,-570.6 920,-570.6"/>
<path fill="none" stroke="black" d="M920,-570.6C920,-567.97 865.77,-565.83 799,-565.83 732.23,-565.83 678,-567.97 678,-570.6"/>
<text text-anchor="middle" x="799" y="-552.92" font-family="Times,serif" font-size="14.00">cmake&#45;external:&lt;distro&gt;_devel</text>
<text text-anchor="middle" x="799" y="-537.92" font-family="Times,serif" font-size="14.00">devel</text>
</g>
<!-- SRC&#45;&gt;DEVEL_IMG -->
<g id="edge10" class="edge">
<title>SRC&#45;&gt;DEVEL_IMG</title>
<path fill="none" stroke="black" stroke-dasharray="5,2" d="M987.4,-634.35C982.67,-631.53 977.74,-628.72 973,-626.25 940.55,-609.31 903.52,-592.75 871.99,-579.42"/>
<polygon fill="black" stroke="black" points="872.97,-576.03 862.39,-575.39 870.26,-582.49 872.97,-576.03"/>
<text text-anchor="middle" x="952" y="-597.05" font-family="Times,serif" font-size="14.00">copy</text>
</g>
<!-- ENV_IMG&#45;&gt;DEVEL_IMG -->
<g id="edge1" class="edge">
<title>ENV_IMG&#45;&gt;DEVEL_IMG</title>
<path fill="none" stroke="black" d="M623.89,-626.22C656.54,-612.03 697.49,-594.24 731.58,-579.42"/>
<polygon fill="black" stroke="black" points="733.22,-582.52 741,-575.33 730.43,-576.1 733.22,-582.52"/>
</g>
<!-- INSTALL_DEVEL_IMG -->
<g id="node8" class="node">
<title>INSTALL_DEVEL_IMG</title>
<path fill="royalblue" stroke="black" d="M712.5,-378.1C712.5,-380.74 646.84,-382.88 566,-382.88 485.16,-382.88 419.5,-380.74 419.5,-378.1 419.5,-378.1 419.5,-335.15 419.5,-335.15 419.5,-332.51 485.16,-330.37 566,-330.37 646.84,-330.37 712.5,-332.51 712.5,-335.15 712.5,-335.15 712.5,-378.1 712.5,-378.1"/>
<path fill="none" stroke="black" d="M712.5,-378.1C712.5,-375.47 646.84,-373.33 566,-373.33 485.16,-373.33 419.5,-375.47 419.5,-378.1"/>
<text text-anchor="middle" x="566" y="-360.43" font-family="Times,serif" font-size="14.00">cmake&#45;external:&lt;distro&gt;_install_devel</text>
<text text-anchor="middle" x="566" y="-345.43" font-family="Times,serif" font-size="14.00">install_devel</text>
</g>
<!-- ENV_IMG&#45;&gt;INSTALL_DEVEL_IMG -->
<g id="edge5" class="edge">
<title>ENV_IMG&#45;&gt;INSTALL_DEVEL_IMG</title>
<path fill="none" stroke="black" d="M566,-626.08C566,-573.69 566,-453.24 566,-393.12"/>
<polygon fill="black" stroke="black" points="569.5,-392.97 566,-382.97 562.5,-392.97 569.5,-392.97"/>
</g>
<!-- ENV_TAR -->
<g id="node11" class="node">
<title>ENV_TAR</title>
<polygon fill="royalblue" stroke="black" points="130,-52 16,-52 16,-16 136,-16 136,-46 130,-52"/>
<polyline fill="none" stroke="black" points="130,-52 130,-46 "/>
<polyline fill="none" stroke="black" points="136,-46 130,-46 "/>
<text text-anchor="middle" x="76" y="-30.3" font-family="Times,serif" font-size="14.00">docker_env.tar</text>
</g>
<!-- ENV_IMG&#45;&gt;ENV_TAR -->
<g id="edge11" class="edge">
<title>ENV_IMG&#45;&gt;ENV_TAR</title>
<path fill="none" stroke="red" d="M451.42,-641.77C289.44,-626.62 13,-594.29 13,-550.12 13,-550.12 13,-550.12 13,-149.12 13,-115.21 34.59,-81.89 52.49,-60.1"/>
<polygon fill="red" stroke="red" points="55.29,-62.21 59.12,-52.33 49.96,-57.67 55.29,-62.21"/>
<text text-anchor="middle" x="103.5" y="-352.93" font-family="Times,serif" font-size="14.00">make save_&lt;distro&gt;_env</text>
</g>
<!-- BUILD_IMG -->
<g id="node6" class="node">
<title>BUILD_IMG</title>
<path fill="royalblue" stroke="black" d="M930.5,-481.35C930.5,-483.99 876.94,-486.13 811,-486.13 745.06,-486.13 691.5,-483.99 691.5,-481.35 691.5,-481.35 691.5,-438.4 691.5,-438.4 691.5,-435.76 745.06,-433.62 811,-433.62 876.94,-433.62 930.5,-435.76 930.5,-438.4 930.5,-438.4 930.5,-481.35 930.5,-481.35"/>
<path fill="none" stroke="black" d="M930.5,-481.35C930.5,-478.72 876.94,-476.58 811,-476.58 745.06,-476.58 691.5,-478.72 691.5,-481.35"/>
<text text-anchor="middle" x="811" y="-463.68" font-family="Times,serif" font-size="14.00">cmake&#45;external:&lt;distro&gt;_build</text>
<text text-anchor="middle" x="811" y="-448.68" font-family="Times,serif" font-size="14.00">build</text>
</g>
<!-- DEVEL_IMG&#45;&gt;BUILD_IMG -->
<g id="edge2" class="edge">
<title>DEVEL_IMG&#45;&gt;BUILD_IMG</title>
<path fill="none" stroke="black" d="M802.47,-522.89C803.62,-514.57 804.91,-505.16 806.14,-496.22"/>
<polygon fill="black" stroke="black" points="809.64,-496.44 807.54,-486.05 802.71,-495.48 809.64,-496.44"/>
</g>
<!-- DEVEL_TAR -->
<g id="node12" class="node">
<title>DEVEL_TAR</title>
<polygon fill="royalblue" stroke="black" points="283.5,-52 154.5,-52 154.5,-16 289.5,-16 289.5,-46 283.5,-52"/>
<polyline fill="none" stroke="black" points="283.5,-52 283.5,-46 "/>
<polyline fill="none" stroke="black" points="289.5,-46 283.5,-46 "/>
<text text-anchor="middle" x="222" y="-30.3" font-family="Times,serif" font-size="14.00">docker_devel.tar</text>
</g>
<!-- DEVEL_IMG&#45;&gt;DEVEL_TAR -->
<g id="edge12" class="edge">
<title>DEVEL_IMG&#45;&gt;DEVEL_TAR</title>
<path fill="none" stroke="red" d="M677.69,-541.74C508.45,-531.18 222,-506.56 222,-460.88 222,-460.88 222,-460.88 222,-149.12 222,-119.36 222,-85.24 222,-62.11"/>
<polygon fill="red" stroke="red" points="225.5,-62.01 222,-52.01 218.5,-62.02 225.5,-62.01"/>
<text text-anchor="middle" x="318.5" y="-301.3" font-family="Times,serif" font-size="14.00">make save_&lt;distro&gt;_devel</text>
</g>
<!-- TEST_IMG -->
<g id="node7" class="node">
<title>TEST_IMG</title>
<path fill="royalblue" stroke="black" d="M961.5,-378.1C961.5,-380.74 909.73,-382.88 846,-382.88 782.27,-382.88 730.5,-380.74 730.5,-378.1 730.5,-378.1 730.5,-335.15 730.5,-335.15 730.5,-332.51 782.27,-330.37 846,-330.37 909.73,-330.37 961.5,-332.51 961.5,-335.15 961.5,-335.15 961.5,-378.1 961.5,-378.1"/>
<path fill="none" stroke="black" d="M961.5,-378.1C961.5,-375.47 909.73,-373.33 846,-373.33 782.27,-373.33 730.5,-375.47 730.5,-378.1"/>
<text text-anchor="middle" x="846" y="-360.43" font-family="Times,serif" font-size="14.00">cmake&#45;external:&lt;distro&gt;_test</text>
<text text-anchor="middle" x="846" y="-345.43" font-family="Times,serif" font-size="14.00">test</text>
</g>
<!-- BUILD_IMG&#45;&gt;TEST_IMG -->
<g id="edge3" class="edge">
<title>BUILD_IMG&#45;&gt;TEST_IMG</title>
<path fill="none" stroke="black" d="M819.74,-433.59C824.04,-421.14 829.3,-405.95 833.97,-392.43"/>
<polygon fill="black" stroke="black" points="837.29,-393.54 837.25,-382.94 830.67,-391.25 837.29,-393.54"/>
</g>
<!-- BUILD_IMG&#45;&gt;INSTALL_DEVEL_IMG -->
<g id="edge4" class="edge">
<title>BUILD_IMG&#45;&gt;INSTALL_DEVEL_IMG</title>
<path fill="none" stroke="black" stroke-dasharray="5,2" d="M750.12,-433.72C715.65,-419.47 672.37,-401.58 636.43,-386.73"/>
<polygon fill="black" stroke="black" points="637.57,-383.41 626.99,-382.83 634.89,-389.88 637.57,-383.41"/>
<text text-anchor="middle" x="744" y="-404.55" font-family="Times,serif" font-size="14.00">copy install</text>
</g>
<!-- BUILD_TAR -->
<g id="node13" class="node">
<title>BUILD_TAR</title>
<polygon fill="royalblue" stroke="black" points="1177.5,-52 1050.5,-52 1050.5,-16 1183.5,-16 1183.5,-46 1177.5,-52"/>
<polyline fill="none" stroke="black" points="1177.5,-52 1177.5,-46 "/>
<polyline fill="none" stroke="black" points="1183.5,-46 1177.5,-46 "/>
<text text-anchor="middle" x="1117" y="-30.3" font-family="Times,serif" font-size="14.00">docker_build.tar</text>
</g>
<!-- BUILD_IMG&#45;&gt;BUILD_TAR -->
<g id="edge13" class="edge">
<title>BUILD_IMG&#45;&gt;BUILD_TAR</title>
<path fill="none" stroke="red" d="M930.74,-450.98C1046.02,-439.98 1203,-414.56 1203,-357.62 1203,-357.62 1203,-357.62 1203,-149.12 1203,-112.12 1173.81,-79.5 1149.44,-58.71"/>
<polygon fill="red" stroke="red" points="1151.37,-55.76 1141.41,-52.13 1146.93,-61.18 1151.37,-55.76"/>
<text text-anchor="middle" x="1298.5" y="-249.68" font-family="Times,serif" font-size="14.00">make save_&lt;distro&gt;_build</text>
</g>
<!-- TEST_TAR -->
<g id="node14" class="node">
<title>TEST_TAR</title>
<polygon fill="royalblue" stroke="black" points="1026.5,-52 907.5,-52 907.5,-16 1032.5,-16 1032.5,-46 1026.5,-52"/>
<polyline fill="none" stroke="black" points="1026.5,-52 1026.5,-46 "/>
<polyline fill="none" stroke="black" points="1032.5,-46 1026.5,-46 "/>
<text text-anchor="middle" x="970" y="-30.3" font-family="Times,serif" font-size="14.00">docker_test.tar</text>
</g>
<!-- TEST_IMG&#45;&gt;TEST_TAR -->
<g id="edge14" class="edge">
<title>TEST_IMG&#45;&gt;TEST_TAR</title>
<path fill="none" stroke="red" d="M881.66,-330.43C915.05,-304.45 962.73,-260.56 983,-209.25 1002.39,-160.16 989.42,-97.3 979.12,-62.07"/>
<polygon fill="red" stroke="red" points="982.33,-60.6 976.04,-52.07 975.63,-62.66 982.33,-60.6"/>
<text text-anchor="middle" x="1078.5" y="-198.05" font-family="Times,serif" font-size="14.00">make save_&lt;distro&gt;_test</text>
</g>
<!-- INSTALL_BUILD_IMG -->
<g id="node9" class="node">
<title>INSTALL_BUILD_IMG</title>
<path fill="royalblue" stroke="black" d="M710,-274.85C710,-277.49 645.01,-279.63 565,-279.63 484.99,-279.63 420,-277.49 420,-274.85 420,-274.85 420,-231.9 420,-231.9 420,-229.26 484.99,-227.12 565,-227.12 645.01,-227.12 710,-229.26 710,-231.9 710,-231.9 710,-274.85 710,-274.85"/>
<path fill="none" stroke="black" d="M710,-274.85C710,-272.22 645.01,-270.08 565,-270.08 484.99,-270.08 420,-272.22 420,-274.85"/>
<text text-anchor="middle" x="565" y="-257.18" font-family="Times,serif" font-size="14.00">cmake&#45;external:&lt;distro&gt;_install_build</text>
<text text-anchor="middle" x="565" y="-242.18" font-family="Times,serif" font-size="14.00">install_build</text>
</g>
<!-- INSTALL_DEVEL_IMG&#45;&gt;INSTALL_BUILD_IMG -->
<g id="edge6" class="edge">
<title>INSTALL_DEVEL_IMG&#45;&gt;INSTALL_BUILD_IMG</title>
<path fill="none" stroke="black" d="M565.75,-330.34C565.63,-318.13 565.48,-303.29 565.35,-289.97"/>
<polygon fill="black" stroke="black" points="568.85,-289.66 565.25,-279.69 561.85,-289.73 568.85,-289.66"/>
</g>
<!-- INSTALL_DEVEL_TAR -->
<g id="node15" class="node">
<title>INSTALL_DEVEL_TAR</title>
<polygon fill="royalblue" stroke="black" points="884,-52 704,-52 704,-16 890,-16 890,-46 884,-52"/>
<polyline fill="none" stroke="black" points="884,-52 884,-46 "/>
<polyline fill="none" stroke="black" points="890,-46 884,-46 "/>
<text text-anchor="middle" x="797" y="-30.3" font-family="Times,serif" font-size="14.00">docker_install_devel.tar</text>
</g>
<!-- INSTALL_DEVEL_IMG&#45;&gt;INSTALL_DEVEL_TAR -->
<g id="edge15" class="edge">
<title>INSTALL_DEVEL_IMG&#45;&gt;INSTALL_DEVEL_TAR</title>
<path fill="none" stroke="red" d="M650.06,-330.39C675.75,-318.78 701.73,-302.34 719,-279.5 742.25,-248.75 708.09,-221.86 735,-194.25 761.65,-166.91 793.96,-205.07 819,-176.25 846.73,-144.33 827.81,-92.34 812.05,-61.12"/>
<polygon fill="red" stroke="red" points="815.07,-59.36 807.31,-52.15 808.88,-62.63 815.07,-59.36"/>
<text text-anchor="middle" x="857" y="-198.05" font-family="Times,serif" font-size="14.00">make save_&lt;distro&gt;_install_devel</text>
</g>
<!-- INSTALL_TEST_IMG -->
<g id="node10" class="node">
<title>INSTALL_TEST_IMG</title>
<path fill="royalblue" stroke="black" d="M810,-171.6C810,-174.24 746.8,-176.38 669,-176.38 591.2,-176.38 528,-174.24 528,-171.6 528,-171.6 528,-128.65 528,-128.65 528,-126.01 591.2,-123.87 669,-123.87 746.8,-123.87 810,-126.01 810,-128.65 810,-128.65 810,-171.6 810,-171.6"/>
<path fill="none" stroke="black" d="M810,-171.6C810,-168.97 746.8,-166.83 669,-166.83 591.2,-166.83 528,-168.97 528,-171.6"/>
<text text-anchor="middle" x="669" y="-153.93" font-family="Times,serif" font-size="14.00">cmake&#45;external:&lt;distro&gt;_install_test</text>
<text text-anchor="middle" x="669" y="-138.93" font-family="Times,serif" font-size="14.00">install_test</text>
</g>
<!-- INSTALL_BUILD_IMG&#45;&gt;INSTALL_TEST_IMG -->
<g id="edge7" class="edge">
<title>INSTALL_BUILD_IMG&#45;&gt;INSTALL_TEST_IMG</title>
<path fill="none" stroke="black" d="M590.98,-227.09C604.5,-213.92 621.19,-197.67 635.66,-183.58"/>
<polygon fill="black" stroke="black" points="638.27,-185.93 643,-176.44 633.39,-180.91 638.27,-185.93"/>
</g>
<!-- INSTALL_BUILD_TAR -->
<g id="node16" class="node">
<title>INSTALL_BUILD_TAR</title>
<polygon fill="royalblue" stroke="black" points="486,-52 308,-52 308,-16 492,-16 492,-46 486,-52"/>
<polyline fill="none" stroke="black" points="486,-52 486,-46 "/>
<polyline fill="none" stroke="black" points="492,-46 486,-46 "/>
<text text-anchor="middle" x="400" y="-30.3" font-family="Times,serif" font-size="14.00">docker_install_build.tar</text>
</g>
<!-- INSTALL_BUILD_IMG&#45;&gt;INSTALL_BUILD_TAR -->
<g id="edge16" class="edge">
<title>INSTALL_BUILD_IMG&#45;&gt;INSTALL_BUILD_TAR</title>
<path fill="none" stroke="red" d="M419.99,-230.86C357.99,-218.41 295.58,-200.37 277,-176.25 260.66,-155.03 264.3,-139.57 277,-116 291.47,-89.14 319.18,-69.72 344.64,-56.64"/>
<polygon fill="red" stroke="red" points="346.46,-59.65 353.89,-52.1 343.37,-53.36 346.46,-59.65"/>
<text text-anchor="middle" x="398" y="-146.43" font-family="Times,serif" font-size="14.00">make save_&lt;distro&gt;_install_build</text>
</g>
<!-- INSTALL_TEST_TAR -->
<g id="node17" class="node">
<title>INSTALL_TEST_TAR</title>
<polygon fill="royalblue" stroke="black" points="680,-52 510,-52 510,-16 686,-16 686,-46 680,-52"/>
<polyline fill="none" stroke="black" points="680,-52 680,-46 "/>
<polyline fill="none" stroke="black" points="686,-46 680,-46 "/>
<text text-anchor="middle" x="598" y="-30.3" font-family="Times,serif" font-size="14.00">docker_install_test.tar</text>
</g>
<!-- INSTALL_TEST_IMG&#45;&gt;INSTALL_TEST_TAR -->
<g id="edge17" class="edge">
<title>INSTALL_TEST_IMG&#45;&gt;INSTALL_TEST_TAR</title>
<path fill="none" stroke="red" d="M606.35,-123.93C599.87,-118.92 594.15,-112.99 590,-106 582.16,-92.78 583.78,-75.72 587.54,-61.64"/>
<polygon fill="red" stroke="red" points="590.91,-62.6 590.56,-52.01 584.23,-60.51 590.91,-62.6"/>
<text text-anchor="middle" x="707" y="-94.8" font-family="Times,serif" font-size="14.00">make save_&lt;distro&gt;_install_test</text>
</g>
</g>
</svg>
