<?xml version="1.0" encoding="UTF-8" standalone="no"?>
<!DOCTYPE svg PUBLIC "-//W3C//DTD SVG 1.1//EN"
 "http://www.w3.org/Graphics/SVG/1.1/DTD/svg11.dtd">
<!-- Generated by graphviz version 12.1.2 (0)
 -->
<!-- Title: DockerDeps Pages: 1 -->
<svg width="1563pt" height="968pt"
 viewBox="0.00 0.00 1562.50 967.81" xmlns="http://www.w3.org/2000/svg" xmlns:xlink="http://www.w3.org/1999/xlink">
<g id="graph0" class="graph" transform="scale(1 1) rotate(0) translate(4 963.81)">
<title>DockerDeps</title>
<polygon fill="white" stroke="none" points="-4,4 -4,-963.81 1558.5,-963.81 1558.5,4 -4,4"/>
<g id="clust1" class="cluster">
<title>clusterDockerfile</title>
<polygon fill="none" stroke="royalblue" points="394,-120.5 394,-874.06 1030,-874.06 1030,-120.5 394,-120.5"/>
<text text-anchor="middle" x="712" y="-856.76" font-family="Times,serif" font-size="14.00">docker/&lt;distro&gt;/Dockerfile</text>
</g>
<g id="clust2" class="cluster">
<title>clusterCache</title>
<polygon fill="none" stroke="royalblue" points="8,-8 8,-85.25 1374,-85.25 1374,-8 8,-8"/>
<text text-anchor="middle" x="691" y="-67.95" font-family="Times,serif" font-size="14.00">cache/&lt;distro&gt;/</text>
</g>
<!-- DISTRO_IMG -->
<g id="node1" class="node">
<title>DISTRO_IMG</title>
<path fill="royalblue" stroke="black" d="M622.5,-953.29C622.5,-955.1 594.04,-956.56 559,-956.56 523.96,-956.56 495.5,-955.1 495.5,-953.29 495.5,-953.29 495.5,-923.84 495.5,-923.84 495.5,-922.03 523.96,-920.56 559,-920.56 594.04,-920.56 622.5,-922.03 622.5,-923.84 622.5,-923.84 622.5,-953.29 622.5,-953.29"/>
<path fill="none" stroke="black" d="M622.5,-953.29C622.5,-951.48 594.04,-950.02 559,-950.02 523.96,-950.02 495.5,-951.48 495.5,-953.29"/>
<text text-anchor="middle" x="559" y="-933.89" font-family="Times,serif" font-size="14.00">&lt;distro&gt;:latest</text>
</g>
<!-- ENV_IMG -->
<g id="node5" class="node">
<title>ENV_IMG</title>
<path fill="royalblue" stroke="black" d="M748.12,-835.5C748.12,-838.43 696.97,-840.81 634,-840.81 571.03,-840.81 519.88,-838.43 519.88,-835.5 519.88,-835.5 519.88,-787.69 519.88,-787.69 519.88,-784.76 571.03,-782.38 634,-782.38 696.97,-782.38 748.12,-784.76 748.12,-787.69 748.12,-787.69 748.12,-835.5 748.12,-835.5"/>
<path fill="none" stroke="black" d="M748.12,-835.5C748.12,-832.57 696.97,-830.19 634,-830.19 571.03,-830.19 519.88,-832.57 519.88,-835.5"/>
<text text-anchor="middle" x="634" y="-815.54" font-family="Times,serif" font-size="14.00">cmake&#45;external:&lt;distro&gt;_env</text>
<text text-anchor="middle" x="634" y="-798.29" font-family="Times,serif" font-size="14.00">env</text>
</g>
<!-- DISTRO_IMG&#45;&gt;ENV_IMG -->
<g id="edge10" class="edge">
<title>DISTRO_IMG&#45;&gt;ENV_IMG</title>
<path fill="none" stroke="black" d="M569.43,-920.19C580.21,-902.23 597.37,-873.63 611.29,-850.43"/>
<polygon fill="black" stroke="black" points="614.11,-852.54 616.26,-842.16 608.11,-848.93 614.11,-852.54"/>
</g>
<!-- PKG -->
<g id="node2" class="node">
<title>PKG</title>
<polygon fill="royalblue" stroke="black" points="775.25,-959.81 644.75,-959.81 640.75,-955.81 640.75,-917.31 771.25,-917.31 775.25,-921.31 775.25,-959.81"/>
<polyline fill="none" stroke="black" points="771.25,-955.81 640.75,-955.81"/>
<polyline fill="none" stroke="black" points="771.25,-955.81 771.25,-917.31"/>
<polyline fill="none" stroke="black" points="771.25,-955.81 775.25,-959.81"/>
<text text-anchor="middle" x="708" y="-942.51" font-family="Times,serif" font-size="14.00">packages</text>
<text text-anchor="middle" x="708" y="-925.26" font-family="Times,serif" font-size="14.00">e.g. cmake, g++</text>
</g>
<!-- PKG&#45;&gt;ENV_IMG -->
<g id="edge11" class="edge">
<title>PKG&#45;&gt;ENV_IMG</title>
<path fill="none" stroke="black" stroke-dasharray="5,2" d="M695.78,-916.93C685.17,-899.01 669.53,-872.6 656.65,-850.84"/>
<polygon fill="black" stroke="black" points="659.82,-849.33 651.72,-842.51 653.8,-852.9 659.82,-849.33"/>
<text text-anchor="middle" x="706.19" y="-886.01" font-family="Times,serif" font-size="14.00">install</text>
</g>
<!-- SRC -->
<g id="node3" class="node">
<title>SRC</title>
<polygon fill="royalblue" stroke="black" points="1110.12,-829.59 1107.12,-833.59 1086.12,-833.59 1083.12,-829.59 1037.88,-829.59 1037.88,-793.59 1110.12,-793.59 1110.12,-829.59"/>
<text text-anchor="middle" x="1074" y="-806.92" font-family="Times,serif" font-size="14.00">git repo</text>
</g>
<!-- DEVEL_IMG -->
<g id="node6" class="node">
<title>DEVEL_IMG</title>
<path fill="royalblue" stroke="black" d="M957.5,-723.81C957.5,-726.74 903.49,-729.12 837,-729.12 770.51,-729.12 716.5,-726.74 716.5,-723.81 716.5,-723.81 716.5,-676 716.5,-676 716.5,-673.07 770.51,-670.69 837,-670.69 903.49,-670.69 957.5,-673.07 957.5,-676 957.5,-676 957.5,-723.81 957.5,-723.81"/>
<path fill="none" stroke="black" d="M957.5,-723.81C957.5,-720.88 903.49,-718.5 837,-718.5 770.51,-718.5 716.5,-720.88 716.5,-723.81"/>
<text text-anchor="middle" x="837" y="-703.86" font-family="Times,serif" font-size="14.00">cmake&#45;external:&lt;distro&gt;_devel</text>
<text text-anchor="middle" x="837" y="-686.61" font-family="Times,serif" font-size="14.00">devel</text>
</g>
<!-- SRC&#45;&gt;DEVEL_IMG -->
<g id="edge12" class="edge">
<title>SRC&#45;&gt;DEVEL_IMG</title>
<path fill="none" stroke="black" stroke-dasharray="5,2" d="M1051.3,-793.27C1045.79,-789.44 1039.81,-785.57 1034,-782.38 1000.06,-763.69 960.94,-746.67 926.55,-733.07"/>
<polygon fill="black" stroke="black" points="928.04,-729.89 917.45,-729.51 925.49,-736.41 928.04,-729.89"/>
<text text-anchor="middle" x="1014.22" y="-751.08" font-family="Times,serif" font-size="14.00">copy</text>
</g>
<!-- SPL -->
<g id="node4" class="node">
<title>SPL</title>
<polygon fill="royalblue" stroke="black" points="476.25,-510.78 473.25,-514.78 452.25,-514.78 449.25,-510.78 401.75,-510.78 401.75,-474.78 476.25,-474.78 476.25,-510.78"/>
<text text-anchor="middle" x="439" y="-488.11" font-family="Times,serif" font-size="14.00">samples</text>
</g>
<!-- INSTALL_DEVEL_IMG -->
<g id="node10" class="node">
<title>INSTALL_DEVEL_IMG</title>
<path fill="royalblue" stroke="black" d="M774,-405C774,-407.93 708.56,-410.31 628,-410.31 547.44,-410.31 482,-407.93 482,-405 482,-405 482,-357.19 482,-357.19 482,-354.26 547.44,-351.88 628,-351.88 708.56,-351.88 774,-354.26 774,-357.19 774,-357.19 774,-405 774,-405"/>
<path fill="none" stroke="black" d="M774,-405C774,-402.07 708.56,-399.69 628,-399.69 547.44,-399.69 482,-402.07 482,-405"/>
<text text-anchor="middle" x="628" y="-385.04" font-family="Times,serif" font-size="14.00">cmake&#45;external:&lt;distro&gt;_install_devel</text>
<text text-anchor="middle" x="628" y="-367.79" font-family="Times,serif" font-size="14.00">install_devel</text>
</g>
<!-- SPL&#45;&gt;INSTALL_DEVEL_IMG -->
<g id="edge7" class="edge">
<title>SPL&#45;&gt;INSTALL_DEVEL_IMG</title>
<path fill="none" stroke="black" stroke-dasharray="5,2" d="M467.13,-474.32C473.01,-470.73 479.19,-467 485,-463.56 511.71,-447.77 541.48,-430.72 566.92,-416.31"/>
<polygon fill="black" stroke="black" points="568.51,-419.44 575.49,-411.47 565.06,-413.35 568.51,-419.44"/>
<text text-anchor="middle" x="560.15" y="-432.26" font-family="Times,serif" font-size="14.00">copy</text>
</g>
<!-- ENV_IMG&#45;&gt;DEVEL_IMG -->
<g id="edge1" class="edge">
<title>ENV_IMG&#45;&gt;DEVEL_IMG</title>
<path fill="none" stroke="black" d="M687.07,-781.92C713.65,-767.56 746.01,-750.07 773.85,-735.03"/>
<polygon fill="black" stroke="black" points="775.42,-738.16 782.56,-730.32 772.09,-732 775.42,-738.16"/>
</g>
<!-- INSTALL_ENV_IMG -->
<g id="node9" class="node">
<title>INSTALL_ENV_IMG</title>
<path fill="royalblue" stroke="black" d="M773.62,-516.69C773.62,-519.62 711.04,-522 634,-522 556.96,-522 494.38,-519.62 494.38,-516.69 494.38,-516.69 494.38,-468.88 494.38,-468.88 494.38,-465.94 556.96,-463.56 634,-463.56 711.04,-463.56 773.62,-465.94 773.62,-468.88 773.62,-468.88 773.62,-516.69 773.62,-516.69"/>
<path fill="none" stroke="black" d="M773.62,-516.69C773.62,-513.76 711.04,-511.38 634,-511.38 556.96,-511.38 494.38,-513.76 494.38,-516.69"/>
<text text-anchor="middle" x="634" y="-496.73" font-family="Times,serif" font-size="14.00">cmake&#45;external:&lt;distro&gt;_install_env</text>
<text text-anchor="middle" x="634" y="-479.48" font-family="Times,serif" font-size="14.00">install_env</text>
</g>
<!-- ENV_IMG&#45;&gt;INSTALL_ENV_IMG -->
<g id="edge4" class="edge">
<title>ENV_IMG&#45;&gt;INSTALL_ENV_IMG</title>
<path fill="none" stroke="black" d="M634,-781.92C634,-725.14 634,-598.28 634,-533.5"/>
<polygon fill="black" stroke="black" points="637.5,-533.68 634,-523.68 630.5,-533.68 637.5,-533.68"/>
</g>
<!-- ENV_TAR -->
<g id="node13" class="node">
<title>ENV_TAR</title>
<polygon fill="royalblue" stroke="black" points="129.75,-52 16.25,-52 16.25,-16 135.75,-16 135.75,-46 129.75,-52"/>
<polyline fill="none" stroke="black" points="129.75,-52 129.75,-46"/>
<polyline fill="none" stroke="black" points="135.75,-46 129.75,-46"/>
<text text-anchor="middle" x="76" y="-29.32" font-family="Times,serif" font-size="14.00">docker_env.tar</text>
</g>
<!-- ENV_IMG&#45;&gt;ENV_TAR -->
<g id="edge13" class="edge">
<title>ENV_IMG&#45;&gt;ENV_TAR</title>
<path fill="none" stroke="red" d="M519.4,-810.89C356.1,-808.17 76,-790.44 76,-700.91 76,-700.91 76,-700.91 76,-156.72 76,-124.9 76,-88.41 76,-63.74"/>
<polygon fill="red" stroke="red" points="79.5,-63.85 76,-53.85 72.5,-63.85 79.5,-63.85"/>
<text text-anchor="middle" x="166" y="-432.26" font-family="Times,serif" font-size="14.00">make save_&lt;distro&gt;_env</text>
</g>
<!-- BUILD_IMG -->
<g id="node7" class="node">
<title>BUILD_IMG</title>
<path fill="royalblue" stroke="black" d="M1006.38,-628.38C1006.38,-631.31 952.87,-633.69 887,-633.69 821.13,-633.69 767.62,-631.31 767.62,-628.38 767.62,-628.38 767.62,-580.56 767.62,-580.56 767.62,-577.63 821.13,-575.25 887,-575.25 952.87,-575.25 1006.38,-577.63 1006.38,-580.56 1006.38,-580.56 1006.38,-628.38 1006.38,-628.38"/>
<path fill="none" stroke="black" d="M1006.38,-628.38C1006.38,-625.44 952.87,-623.06 887,-623.06 821.13,-623.06 767.62,-625.44 767.62,-628.38"/>
<text text-anchor="middle" x="887" y="-608.42" font-family="Times,serif" font-size="14.00">cmake&#45;external:&lt;distro&gt;_build</text>
<text text-anchor="middle" x="887" y="-591.17" font-family="Times,serif" font-size="14.00">build</text>
</g>
<!-- DEVEL_IMG&#45;&gt;BUILD_IMG -->
<g id="edge2" class="edge">
<title>DEVEL_IMG&#45;&gt;BUILD_IMG</title>
<path fill="none" stroke="black" d="M852.27,-670.36C856.69,-662.11 861.59,-652.96 866.28,-644.19"/>
<polygon fill="black" stroke="black" points="869.3,-645.96 870.93,-635.49 863.13,-642.66 869.3,-645.96"/>
</g>
<!-- DEVEL_TAR -->
<g id="node14" class="node">
<title>DEVEL_TAR</title>
<polygon fill="royalblue" stroke="black" points="282.25,-52 153.75,-52 153.75,-16 288.25,-16 288.25,-46 282.25,-52"/>
<polyline fill="none" stroke="black" points="282.25,-52 282.25,-46"/>
<polyline fill="none" stroke="black" points="288.25,-46 282.25,-46"/>
<text text-anchor="middle" x="221" y="-29.32" font-family="Times,serif" font-size="14.00">docker_devel.tar</text>
</g>
<!-- DEVEL_IMG&#45;&gt;DEVEL_TAR -->
<g id="edge14" class="edge">
<title>DEVEL_IMG&#45;&gt;DEVEL_TAR</title>
<path fill="none" stroke="red" d="M716.27,-690.89C550.05,-678.2 271,-650.22 271,-605.47 271,-605.47 271,-605.47 271,-156.72 271,-122.09 253.47,-85.8 239.17,-61.95"/>
<polygon fill="red" stroke="red" points="242.17,-60.14 233.91,-53.51 236.23,-63.85 242.17,-60.14"/>
<text text-anchor="middle" x="367.38" y="-376.42" font-family="Times,serif" font-size="14.00">make save_&lt;distro&gt;_devel</text>
</g>
<!-- TEST_IMG -->
<g id="node8" class="node">
<title>TEST_IMG</title>
<path fill="royalblue" stroke="black" d="M1022.25,-516.69C1022.25,-519.62 970.59,-522 907,-522 843.41,-522 791.75,-519.62 791.75,-516.69 791.75,-516.69 791.75,-468.88 791.75,-468.88 791.75,-465.94 843.41,-463.56 907,-463.56 970.59,-463.56 1022.25,-465.94 1022.25,-468.88 1022.25,-468.88 1022.25,-516.69 1022.25,-516.69"/>
<path fill="none" stroke="black" d="M1022.25,-516.69C1022.25,-513.76 970.59,-511.38 907,-511.38 843.41,-511.38 791.75,-513.76 791.75,-516.69"/>
<text text-anchor="middle" x="907" y="-496.73" font-family="Times,serif" font-size="14.00">cmake&#45;external:&lt;distro&gt;_test</text>
<text text-anchor="middle" x="907" y="-479.48" font-family="Times,serif" font-size="14.00">test</text>
</g>
<!-- BUILD_IMG&#45;&gt;TEST_IMG -->
<g id="edge3" class="edge">
<title>BUILD_IMG&#45;&gt;TEST_IMG</title>
<path fill="none" stroke="black" d="M892.2,-574.94C894.52,-562.24 897.28,-547.08 899.79,-533.32"/>
<polygon fill="black" stroke="black" points="903.2,-534.13 901.55,-523.66 896.31,-532.87 903.2,-534.13"/>
</g>
<!-- BUILD_IMG&#45;&gt;INSTALL_ENV_IMG -->
<g id="edge5" class="edge">
<title>BUILD_IMG&#45;&gt;INSTALL_ENV_IMG</title>
<path fill="none" stroke="black" stroke-dasharray="5,2" d="M820.86,-574.79C787.01,-560.12 745.63,-542.18 710.43,-526.92"/>
<polygon fill="black" stroke="black" points="712.15,-523.85 701.58,-523.08 709.37,-530.27 712.15,-523.85"/>
<text text-anchor="middle" x="816.52" y="-543.95" font-family="Times,serif" font-size="14.00">copy install</text>
</g>
<!-- BUILD_TAR -->
<g id="node15" class="node">
<title>BUILD_TAR</title>
<polygon fill="royalblue" stroke="black" points="1360.12,-52 1233.88,-52 1233.88,-16 1366.12,-16 1366.12,-46 1360.12,-52"/>
<polyline fill="none" stroke="black" points="1360.12,-52 1360.12,-46"/>
<polyline fill="none" stroke="black" points="1366.12,-46 1360.12,-46"/>
<text text-anchor="middle" x="1300" y="-29.32" font-family="Times,serif" font-size="14.00">docker_build.tar</text>
</g>
<!-- BUILD_IMG&#45;&gt;BUILD_TAR -->
<g id="edge15" class="edge">
<title>BUILD_IMG&#45;&gt;BUILD_TAR</title>
<path fill="none" stroke="red" d="M1006.75,-599.43C1148.05,-591.32 1364,-566.96 1364,-493.78 1364,-493.78 1364,-493.78 1364,-156.72 1364,-120.63 1341.68,-84.72 1323.41,-61.36"/>
<polygon fill="red" stroke="red" points="1326.14,-59.17 1317.11,-53.62 1320.71,-63.59 1326.14,-59.17"/>
<text text-anchor="middle" x="1459.25" y="-320.57" font-family="Times,serif" font-size="14.00">make save_&lt;distro&gt;_build</text>
</g>
<!-- TEST_TAR -->
<g id="node16" class="node">
<title>TEST_TAR</title>
<polygon fill="royalblue" stroke="black" points="1210,-52 1092,-52 1092,-16 1216,-16 1216,-46 1210,-52"/>
<polyline fill="none" stroke="black" points="1210,-52 1210,-46"/>
<polyline fill="none" stroke="black" points="1216,-46 1210,-46"/>
<text text-anchor="middle" x="1154" y="-29.32" font-family="Times,serif" font-size="14.00">docker_test.tar</text>
</g>
<!-- TEST_IMG&#45;&gt;TEST_TAR -->
<g id="edge16" class="edge">
<title>TEST_IMG&#45;&gt;TEST_TAR</title>
<path fill="none" stroke="red" d="M1022.54,-483.5C1086.83,-471.87 1154,-444.73 1154,-382.09 1154,-382.09 1154,-382.09 1154,-156.72 1154,-124.9 1154,-88.41 1154,-63.74"/>
<polygon fill="red" stroke="red" points="1157.5,-63.85 1154,-53.85 1150.5,-63.85 1157.5,-63.85"/>
<text text-anchor="middle" x="1245.12" y="-264.73" font-family="Times,serif" font-size="14.00">make save_&lt;distro&gt;_test</text>
</g>
<!-- INSTALL_ENV_IMG&#45;&gt;INSTALL_DEVEL_IMG -->
<g id="edge6" class="edge">
<title>INSTALL_ENV_IMG&#45;&gt;INSTALL_DEVEL_IMG</title>
<path fill="none" stroke="black" d="M632.44,-463.25C631.74,-450.55 630.92,-435.39 630.16,-421.63"/>
<polygon fill="black" stroke="black" points="633.68,-421.79 629.64,-411.99 626.69,-422.17 633.68,-421.79"/>
</g>
<!-- INSTALL_ENV_TAR -->
<g id="node17" class="node">
<title>INSTALL_ENV_TAR</title>
<polygon fill="royalblue" stroke="black" points="1068.25,-52 903.75,-52 903.75,-16 1074.25,-16 1074.25,-46 1068.25,-52"/>
<polyline fill="none" stroke="black" points="1068.25,-52 1068.25,-46"/>
<polyline fill="none" stroke="black" points="1074.25,-46 1068.25,-46"/>
<text text-anchor="middle" x="989" y="-29.32" font-family="Times,serif" font-size="14.00">docker_install_env.tar</text>
</g>
<!-- INSTALL_ENV_IMG&#45;&gt;INSTALL_ENV_TAR -->
<g id="edge17" class="edge">
<title>INSTALL_ENV_IMG&#45;&gt;INSTALL_ENV_TAR</title>
<path fill="none" stroke="red" d="M701.7,-463.11C728.83,-449.59 759.21,-431.7 783,-410.31 851.42,-348.79 836.29,-305.61 901,-240.19 929.75,-211.12 955.71,-222.43 976,-186.94 997.91,-148.62 996.79,-95.78 993.35,-63.58"/>
<polygon fill="red" stroke="red" points="996.85,-63.32 992.15,-53.82 989.9,-64.18 996.85,-63.32"/>
<text text-anchor="middle" x="1016.5" y="-264.73" font-family="Times,serif" font-size="14.00">make save_&lt;distro&gt;_install_env</text>
</g>
<!-- INSTALL_BUILD_IMG -->
<g id="node11" class="node">
<title>INSTALL_BUILD_IMG</title>
<path fill="royalblue" stroke="black" d="M772.88,-293.31C772.88,-296.24 707.94,-298.62 628,-298.62 548.06,-298.62 483.12,-296.24 483.12,-293.31 483.12,-293.31 483.12,-245.5 483.12,-245.5 483.12,-242.57 548.06,-240.19 628,-240.19 707.94,-240.19 772.88,-242.57 772.88,-245.5 772.88,-245.5 772.88,-293.31 772.88,-293.31"/>
<path fill="none" stroke="black" d="M772.88,-293.31C772.88,-290.38 707.94,-288 628,-288 548.06,-288 483.12,-290.38 483.12,-293.31"/>
<text text-anchor="middle" x="628" y="-273.36" font-family="Times,serif" font-size="14.00">cmake&#45;external:&lt;distro&gt;_install_build</text>
<text text-anchor="middle" x="628" y="-256.11" font-family="Times,serif" font-size="14.00">install_build</text>
</g>
<!-- INSTALL_DEVEL_IMG&#45;&gt;INSTALL_BUILD_IMG -->
<g id="edge8" class="edge">
<title>INSTALL_DEVEL_IMG&#45;&gt;INSTALL_BUILD_IMG</title>
<path fill="none" stroke="black" d="M628,-351.56C628,-338.87 628,-323.71 628,-309.94"/>
<polygon fill="black" stroke="black" points="631.5,-310.31 628,-300.31 624.5,-310.31 631.5,-310.31"/>
</g>
<!-- INSTALL_DEVEL_TAR -->
<g id="node18" class="node">
<title>INSTALL_DEVEL_TAR</title>
<polygon fill="royalblue" stroke="black" points="485.75,-52 306.25,-52 306.25,-16 491.75,-16 491.75,-46 485.75,-52"/>
<polyline fill="none" stroke="black" points="485.75,-52 485.75,-46"/>
<polyline fill="none" stroke="black" points="491.75,-46 485.75,-46"/>
<text text-anchor="middle" x="399" y="-29.32" font-family="Times,serif" font-size="14.00">docker_install_devel.tar</text>
</g>
<!-- INSTALL_DEVEL_IMG&#45;&gt;INSTALL_DEVEL_TAR -->
<g id="edge18" class="edge">
<title>INSTALL_DEVEL_IMG&#45;&gt;INSTALL_DEVEL_TAR</title>
<path fill="none" stroke="red" d="M537.16,-351.89C477.76,-327.96 405.42,-286.97 373.25,-222.19 347.42,-170.18 369.63,-100.59 385.79,-62.6"/>
<polygon fill="red" stroke="red" points="388.88,-64.27 389.73,-53.71 382.48,-61.43 388.88,-64.27"/>
<text text-anchor="middle" x="495.12" y="-208.89" font-family="Times,serif" font-size="14.00">make save_&lt;distro&gt;_install_devel</text>
</g>
<!-- INSTALL_TEST_IMG -->
<g id="node12" class="node">
<title>INSTALL_TEST_IMG</title>
<path fill="royalblue" stroke="black" d="M683.75,-181.62C683.75,-184.56 620.66,-186.94 543,-186.94 465.34,-186.94 402.25,-184.56 402.25,-181.62 402.25,-181.62 402.25,-133.81 402.25,-133.81 402.25,-130.88 465.34,-128.5 543,-128.5 620.66,-128.5 683.75,-130.88 683.75,-133.81 683.75,-133.81 683.75,-181.62 683.75,-181.62"/>
<path fill="none" stroke="black" d="M683.75,-181.62C683.75,-178.69 620.66,-176.31 543,-176.31 465.34,-176.31 402.25,-178.69 402.25,-181.62"/>
<text text-anchor="middle" x="543" y="-161.67" font-family="Times,serif" font-size="14.00">cmake&#45;external:&lt;distro&gt;_install_test</text>
<text text-anchor="middle" x="543" y="-144.42" font-family="Times,serif" font-size="14.00">install_test</text>
</g>
<!-- INSTALL_BUILD_IMG&#45;&gt;INSTALL_TEST_IMG -->
<g id="edge9" class="edge">
<title>INSTALL_BUILD_IMG&#45;&gt;INSTALL_TEST_IMG</title>
<path fill="none" stroke="black" d="M630.21,-239.7C629.79,-228.11 627.55,-215.09 621,-204.94 618.69,-201.35 615.99,-198.01 613.02,-194.9"/>
<polygon fill="black" stroke="black" points="615.44,-192.37 605.69,-188.21 610.72,-197.54 615.44,-192.37"/>
</g>
<!-- INSTALL_BUILD_TAR -->
<g id="node19" class="node">
<title>INSTALL_BUILD_TAR</title>
<polygon fill="royalblue" stroke="black" points="879.62,-52 702.38,-52 702.38,-16 885.62,-16 885.62,-46 879.62,-52"/>
<polyline fill="none" stroke="black" points="879.62,-52 879.62,-46"/>
<polyline fill="none" stroke="black" points="885.62,-46 879.62,-46"/>
<text text-anchor="middle" x="794" y="-29.32" font-family="Times,serif" font-size="14.00">docker_install_build.tar</text>
</g>
<!-- INSTALL_BUILD_IMG&#45;&gt;INSTALL_BUILD_TAR -->
<g id="edge19" class="edge">
<title>INSTALL_BUILD_IMG&#45;&gt;INSTALL_BUILD_TAR</title>
<path fill="none" stroke="red" d="M651.99,-240C664.64,-224.62 680.14,-205.1 693,-186.94 713.11,-158.52 715.33,-149.56 734.5,-120.5 747.74,-100.44 763.27,-78.16 775.14,-61.37"/>
<polygon fill="red" stroke="red" points="777.85,-63.6 780.79,-53.42 772.15,-59.55 777.85,-63.6"/>
<text text-anchor="middle" x="855.25" y="-153.04" font-family="Times,serif" font-size="14.00">make save_&lt;distro&gt;_install_build</text>
</g>
<!-- INSTALL_TEST_TAR -->
<g id="node20" class="node">
<title>INSTALL_TEST_TAR</title>
<polygon fill="royalblue" stroke="black" points="678.5,-52 509.5,-52 509.5,-16 684.5,-16 684.5,-46 678.5,-52"/>
<polyline fill="none" stroke="black" points="678.5,-52 678.5,-46"/>
<polyline fill="none" stroke="black" points="684.5,-46 678.5,-46"/>
<text text-anchor="middle" x="597" y="-29.32" font-family="Times,serif" font-size="14.00">docker_install_test.tar</text>
</g>
<!-- INSTALL_TEST_IMG&#45;&gt;INSTALL_TEST_TAR -->
<g id="edge20" class="edge">
<title>INSTALL_TEST_IMG&#45;&gt;INSTALL_TEST_TAR</title>
<path fill="none" stroke="red" d="M483.82,-128.08C470.73,-117.91 463.23,-105.84 472.75,-93.25 480.62,-82.84 488.88,-90.08 501,-85.25 520.28,-77.57 540.78,-67.17 557.86,-57.83"/>
<polygon fill="red" stroke="red" points="559.12,-61.13 566.16,-53.21 555.72,-55.01 559.12,-61.13"/>
<text text-anchor="middle" x="589.38" y="-97.2" font-family="Times,serif" font-size="14.00">make save_&lt;distro&gt;_install_test</text>
</g>
</g>
</svg>
